<svg xmlns="http://www.w3.org/2000/svg" viewBox="0 0 229.98 85.66"><defs><style>.cls-1{fill:#ffc600;}</style></defs><title>nude_logo_secundario</title><g id="Capa_2" data-name="Capa 2"><g id="Capa_1-2" data-name="Capa 1"><path class="cls-1" d="M42.33,0a1,1,0,0,0-.8.34,2.29,2.29,0,0,0-.37,1.11,2.8,2.8,0,0,0,0,.4l-.24,3.52c-.22,3-.45,6-.8,8.91a40.83,40.83,0,0,1-.87,5c-.1.37-.49,1.5-1,1.38s-.88-.74-1.06-1a42.17,42.17,0,0,1-2.53-4.43c-1.36-2.66-2.61-5.39-3.83-8.1Q30,5.57,29.31,4c-.06-.12-.11-.25-.17-.36a2.23,2.23,0,0,0-.74-.92,1,1,0,0,0-.87-.05h0a1,1,0,0,0-.64.6,2.32,2.32,0,0,0,0,1.17c0,.13.07.26.11.39.33,1.12.66,2.25,1,3.38.82,2.86,1.63,5.74,2.32,8.65a40.53,40.53,0,0,1,.93,5c0,.39.17,1.51-.4,1.59l.26-.13c-.37.42-1.27-.24-1.58-.46a41,41,0,0,1-3.89-3.31c-2.18-2-4.28-4.19-6.35-6.32-.82-.84-1.63-1.68-2.44-2.53l-.29-.29a2.21,2.21,0,0,0-1-.61,1,1,0,0,0-.83.25h0a.93.93,0,0,0-.39.77,2.17,2.17,0,0,0,.43,1.09c.07.12.15.22.22.33q1,1.42,2.07,2.85c1.74,2.41,3.48,4.85,5.12,7.35a41.16,41.16,0,0,1,2.58,4.4c.16.35.66,1.36.16,1.63l.15-.17c-.2.53-1.27.22-1.64.11a41,41,0,0,1-4.78-1.78c-2.75-1.18-5.45-2.48-8.13-3.77L7.36,21.29,7,21.12a2.2,2.2,0,0,0-1.15-.23.94.94,0,0,0-.7.52h0a1,1,0,0,0-.11.87,2.21,2.21,0,0,0,.78.88l.32.23c1,.65,2,1.31,2.92,2C11.52,27,14,28.73,16.38,30.52a39.39,39.39,0,0,1,3.92,3.26c.28.26,1.1,1,.71,1.47L21.1,35c0,.56-1.12.64-1.51.66a39.45,39.45,0,0,1-5.1,0c-3-.17-6-.46-8.92-.77l-3.5-.37-.4,0a2.17,2.17,0,0,0-1.16.18.94.94,0,0,0-.48.73H0a.94.94,0,0,0,.19.85,2.13,2.13,0,0,0,1,.56l.39.11c1.14.27,2.27.56,3.41.85,2.88.74,5.78,1.49,8.64,2.35a40.35,40.35,0,0,1,4.8,1.73c.35.15,1.39.61,1.17,1.14h0c-.15.4-.88.72-1.17.85a40.3,40.3,0,0,1-4.8,1.72c-2.86.87-5.76,1.62-8.64,2.36l-3.41.85-.39.1a2.23,2.23,0,0,0-1,.57.93.93,0,0,0-.19.85H0A1,1,0,0,0,.51,51a2.17,2.17,0,0,0,1.16.17l.4,0c1.16-.14,2.33-.26,3.5-.38,2.95-.3,5.94-.6,8.92-.77a43.39,43.39,0,0,1,5.1,0c.39,0,1.5.1,1.51.66L21,50.41c.39.43-.43,1.21-.71,1.48a39.74,39.74,0,0,1-3.93,3.26c-2.38,1.79-4.86,3.48-7.31,5.16-1,.66-1.94,1.32-2.92,2l-.32.23a2.21,2.21,0,0,0-.78.88.94.94,0,0,0,.11.86h0a1,1,0,0,0,.7.52A2.12,2.12,0,0,0,7,64.54l.36-.16c1-.53,2.11-1,3.16-1.55,2.68-1.3,5.38-2.59,8.13-3.77a38.63,38.63,0,0,1,4.78-1.78c.37-.11,1.44-.42,1.64.1l-.15-.16c.5.27,0,1.28-.16,1.62a42.31,42.31,0,0,1-2.58,4.41c-1.64,2.49-3.38,4.93-5.12,7.35-.68,1-1.37,1.9-2.07,2.84l-.22.33a2.2,2.2,0,0,0-.43,1.09,1,1,0,0,0,.39.78h0a.93.93,0,0,0,.83.25,2.12,2.12,0,0,0,1-.61l.29-.28c.81-.85,1.62-1.7,2.44-2.54,2.07-2.13,4.17-4.27,6.35-6.31a39.53,39.53,0,0,1,3.89-3.31c.31-.23,1.21-.88,1.58-.46l-.26-.13c.57.08.44,1.2.4,1.58a41,41,0,0,1-.93,5c-.69,2.9-1.51,5.79-2.32,8.65-.32,1.12-.65,2.25-1,3.38,0,.12-.08.25-.11.38a2.32,2.32,0,0,0,0,1.17,1,1,0,0,0,.64.6h0a1,1,0,0,0,.87,0,2.29,2.29,0,0,0,.74-.92l.17-.36c.47-1.08,1-2.15,1.44-3.22,1.22-2.7,2.47-5.43,3.83-8.09A41.18,41.18,0,0,1,37.11,66c.22-.32.84-1.24,1.33-1s.7,1,.78,1.35a40.68,40.68,0,0,1,.87,5c.35,3,.58,6,.8,8.92l.24,3.51a2.6,2.6,0,0,0,0,.4,2.29,2.29,0,0,0,.37,1.11,1.12,1.12,0,0,0,1.61,0,2.29,2.29,0,0,0,.37-1.11c0-.13,0-.26,0-.4l.24-3.51c.22-3,.45-6,.8-8.92a40.68,40.68,0,0,1,.87-5c.08-.31.36-1.14.78-1.35s1.11.65,1.33,1a41.18,41.18,0,0,1,2.53,4.43c1.36,2.66,2.6,5.39,3.83,8.09.49,1.07,1,2.14,1.44,3.22l.17.36a2.29,2.29,0,0,0,.74.92,1,1,0,0,0,.87,0h0a1,1,0,0,0,.64-.6,2.22,2.22,0,0,0,0-1.17c0-.13-.06-.26-.1-.38-.33-1.13-.66-2.26-1-3.38-.82-2.86-1.63-5.75-2.32-8.65a41,41,0,0,1-.93-5c0-.38-.17-1.5.4-1.58l-.26.13c.37-.42,1.27.23,1.58.46A39.53,39.53,0,0,1,59,66.15c2.18,2,4.28,4.18,6.35,6.31.82.84,1.63,1.69,2.44,2.54a3.83,3.83,0,0,0,.29.28,2.12,2.12,0,0,0,1,.61.94.94,0,0,0,.83-.25h0a1,1,0,0,0,.39-.78,2.2,2.2,0,0,0-.43-1.09l-.23-.33L67.6,70.6c-1.73-2.42-3.47-4.86-5.11-7.35a42.31,42.31,0,0,1-2.58-4.41c-.16-.34-.67-1.35-.16-1.62l-.15.16c.2-.52,1.27-.21,1.64-.1A39.24,39.24,0,0,1,66,59.06c2.74,1.18,5.45,2.47,8.13,3.77,1,.51,2.11,1,3.16,1.55l.36.16a2.1,2.1,0,0,0,1.15.24,1,1,0,0,0,.7-.52h0a1,1,0,0,0,.11-.86,2.21,2.21,0,0,0-.78-.88l-.32-.23c-1-.65-2-1.31-2.92-2-2.46-1.68-4.93-3.37-7.32-5.16a40.81,40.81,0,0,1-3.92-3.26c-.28-.27-1.1-1-.71-1.48l-.09.21c0-.56,1.12-.63,1.5-.66a43.56,43.56,0,0,1,5.11,0c3,.17,6,.47,8.92.77,1.17.12,2.34.24,3.5.38l.4,0A2.17,2.17,0,0,0,84.16,51a1,1,0,0,0,.48-.73h0a.93.93,0,0,0-.19-.85,2.23,2.23,0,0,0-1-.57l-.39-.1-3.41-.85c-2.88-.74-5.78-1.49-8.64-2.36a40.3,40.3,0,0,1-4.8-1.72c-.29-.13-1-.45-1.17-.85h0c-.22-.53.82-1,1.17-1.14A40.35,40.35,0,0,1,71,40.11c2.85-.86,5.76-1.61,8.64-2.35,1.13-.29,2.27-.58,3.41-.85l.39-.11a2.13,2.13,0,0,0,1-.56.94.94,0,0,0,.19-.85h0a.94.94,0,0,0-.48-.73A2.19,2.19,0,0,0,83,34.48l-.4,0-3.5.37c-2.95.31-5.94.6-8.92.77a39.61,39.61,0,0,1-5.11,0c-.38,0-1.49-.1-1.5-.66l.09.21c-.39-.42.43-1.21.71-1.47a39.39,39.39,0,0,1,3.92-3.26c2.39-1.79,4.86-3.49,7.32-5.16,1-.66,1.94-1.32,2.92-2l.32-.23a2.21,2.21,0,0,0,.78-.88,1,1,0,0,0-.11-.87h0a1,1,0,0,0-.7-.52,2.18,2.18,0,0,0-1.15.23l-.36.17-3.16,1.55c-2.68,1.29-5.39,2.59-8.13,3.77a41,41,0,0,1-4.78,1.78c-.37.11-1.44.42-1.64-.11l.15.17c-.51-.27,0-1.28.16-1.63a41.16,41.16,0,0,1,2.58-4.4c1.64-2.5,3.38-4.94,5.11-7.35l2.07-2.85a3.88,3.88,0,0,0,.23-.33,2.17,2.17,0,0,0,.43-1.09,1,1,0,0,0-.39-.77h0a1,1,0,0,0-.83-.25,2.21,2.21,0,0,0-1,.61l-.29.29c-.81.85-1.62,1.69-2.44,2.53C63.3,15.33,61.2,17.48,59,19.52a41,41,0,0,1-3.89,3.31c-.31.22-1.21.88-1.58.46l.26.13c-.57-.08-.44-1.2-.4-1.59a40.53,40.53,0,0,1,.93-5c.69-2.91,1.5-5.79,2.32-8.65.32-1.13.65-2.26,1-3.38,0-.13.07-.26.1-.39a2.21,2.21,0,0,0,0-1.17,1,1,0,0,0-.64-.6h0a1,1,0,0,0-.87.05,2.23,2.23,0,0,0-.74.92c-.06.11-.11.24-.17.36q-.7,1.61-1.44,3.21c-1.23,2.71-2.47,5.44-3.83,8.1a42.17,42.17,0,0,1-2.53,4.43c-.18.26-.63.91-1.06,1s-1-1-1-1.38a40.83,40.83,0,0,1-.87-5c-.35-3-.58-5.95-.8-8.91l-.24-3.52c0-.13,0-.26,0-.4A2.29,2.29,0,0,0,43.14.34,1,1,0,0,0,42.33,0"/><path d="M95.13,29.87V55.78a.22.22,0,0,0,.22.23h2.77a.22.22,0,0,0,.22-.23l0-19.52a.23.23,0,0,1,.39-.16l18.36,19.84a.26.26,0,0,0,.17.07h2.88a.23.23,0,0,0,.23-.23V29.87a.23.23,0,0,0-.23-.23h-2.72a.23.23,0,0,0-.23.23V49.35a.23.23,0,0,1-.39.16L98.65,29.71a.24.24,0,0,0-.16-.07H95.35a.22.22,0,0,0-.22.23"/><path d="M143.74,56h.71a17.91,17.91,0,0,0,7.09-1.61,9.42,9.42,0,0,0,3.26-2.36A11.18,11.18,0,0,0,156,50.3a8.47,8.47,0,0,0,1-3A23.4,23.4,0,0,0,157.1,44c0-.87,0-1.75,0-2.63s0-1.75,0-2.62V36.93c0-.12,0-.23,0-.35V29.94a.3.3,0,0,0-.3-.3h-2.52a.3.3,0,0,0-.3.3v6l0,8.69c0,.7,0,1.33,0,2.1a7.21,7.21,0,0,1-.83,2.79,6.72,6.72,0,0,1-2.52,2.66c-1.54.91-4.6,1.24-6.36,1.3h-1c-2.61-.09-5.33-.77-7.1-3l0,0a7.52,7.52,0,0,1-1.35-3.68c-.06-.82,0-1.38,0-2.1l0-8.69v-6a.31.31,0,0,0-.3-.3h-3.77a.31.31,0,0,0-.3.3v7c0,.6,0,1.19,0,1.79,0,.87,0,1.75,0,2.62s0,1.76,0,2.63a23.4,23.4,0,0,0,.08,3.35,8.47,8.47,0,0,0,1,3,10.55,10.55,0,0,0,1.22,1.75,9.47,9.47,0,0,0,3.25,2.36A18,18,0,0,0,143,56h.71"/><polygon points="196.31 42.82 196.31 42.83 196.31 42.84 196.31 42.82"/><path d="M196,40.34a13,13,0,0,0-5.17-7.54,17.48,17.48,0,0,0-9-3,29.08,29.08,0,0,0-3.85-.12H167.47a.3.3,0,0,0-.3.31V55.7a.3.3,0,0,0,.3.31H178a29.09,29.09,0,0,0,3.85-.13,17.39,17.39,0,0,0,9-3A13,13,0,0,0,196,45.32l.06-.27a10.78,10.78,0,0,0,0-4.43l-.06-.28m-4.36,2.57v0a11,11,0,0,1-.16,1.71,1.55,1.55,0,0,1,0,.21,10.4,10.4,0,0,1-3.56,6,11.07,11.07,0,0,1-6.21,2.38,16.78,16.78,0,0,1-2.65.09h-7.45V32.52H179a18.07,18.07,0,0,1,2.65.1A11,11,0,0,1,187.9,35a10.34,10.34,0,0,1,3.56,5.94,1.43,1.43,0,0,1,0,.22,10.77,10.77,0,0,1,.16,1.71v0Z"/><path d="M191.66,42.91v0"/><path d="M204.68,56V30a.3.3,0,0,1,.3-.31h23.57a.3.3,0,0,1,.3.31v2.19a.3.3,0,0,1-.3.31H209.42a.3.3,0,0,0-.3.31v8a.3.3,0,0,0,.3.31h9.25a.29.29,0,0,1,.3.3v2.16a.29.29,0,0,1-.3.3h-9.25a.3.3,0,0,0-.3.31v8.75a.29.29,0,0,0,.3.3h20.26a.3.3,0,0,1,.3.31v2.2a.3.3,0,0,1-.3.31H205a.3.3,0,0,1-.3-.31"/></g></g></svg>